<svg xmlns="http://www.w3.org/2000/svg" xmlns:xlink="http://www.w3.org/1999/xlink" xmlns:s="https://github.com/nturley/netlistsvg" width="379" height="250">
  <style>svg {
    stroke:#000;
    fill:none;
  }
  text {
    fill:#000;
    stroke:none;
    font-size:10px;
    font-weight: bold;
    font-family: "Courier New", monospace;
  }
  .nodelabel {
    text-anchor: middle;
  }
  .inputPortLabel {
    text-anchor: end;
  }
  .splitjoinBody {
    fill:#000;
  }</style>
  <g s:type="add" transform="translate(80.33333333333333,22)" s:width="25" s:height="25" id="cell_$add$decade_counter.sv:17$3">
    <s:alias val="$add"/>
    <circle r="12.5" cx="12.5" cy="12.5" class="cell_$add$decade_counter.sv:17$3"/>
    <line x1="7.5" x2="17.5" y1="12.5" y2="12.5" class="cell_$add$decade_counter.sv:17$3"/>
    <line x1="12.5" x2="12.5" y1="7.5" y2="17.5" class="cell_$add$decade_counter.sv:17$3"/>
    <g s:x="3" s:y="5" s:pid="A"/>
    <g s:x="3" s:y="20" s:pid="B"/>
    <g s:x="25" s:y="12.5" s:pid="Y"/>
  </g>
  <g s:type="eq" transform="translate(80.33333333333333,87)" s:width="25" s:height="25" id="cell_$eq$decade_counter.sv:14$2">
    <s:alias val="$eq"/>
    <circle r="12.5" cx="12.5" cy="12.5" class="cell_$eq$decade_counter.sv:14$2"/>
    <line x1="7.5" x2="17.5" y1="10" y2="10" class="cell_$eq$decade_counter.sv:14$2"/>
    <line x1="7.5" x2="17.5" y1="15" y2="15" class="cell_$eq$decade_counter.sv:14$2"/>
    <g s:x="3" s:y="5" s:pid="A"/>
    <g s:x="3" s:y="20" s:pid="B"/>
    <g s:x="25" s:y="12.5" s:pid="Y"/>
  </g>
  <g s:type="dff" transform="translate(272,44.5)" s:width="30" s:height="40" id="cell_$procdff$14">
    <s:alias val="$dff"/>
    <s:alias val="$_DFF_"/>
    <s:alias val="$_DFF_P_"/>
    <rect width="30" height="40" x="0" y="0" class="cell_$procdff$14"/>
    <path d="M0,35 L5,30 L0,25" class="cell_$procdff$14"/>
    <g s:x="30" s:y="10" s:pid="Q"/>
    <g s:x="0" s:y="30" s:pid="CLK"/>
    <g s:x="0" s:y="30" s:pid="C"/>
    <g s:x="0" s:y="10" s:pid="D"/>
  </g>
  <g s:type="mux" transform="translate(210.33333333333334,34.5)" s:width="20" s:height="40" id="cell_$procmux$12">
    <s:alias val="$pmux"/>
    <s:alias val="$mux"/>
    <s:alias val="$_MUX_"/>
    <path d="M0,0 L20,10 L20,30 L0,40 Z" class="cell_$procmux$12"/>
    <g s:x="0" s:y="10" s:pid="A"/>
    <g s:x="0" s:y="30" s:pid="B"/>
    <g s:x="10" s:y="35" s:pid="S"/>
    <g s:x="20" s:y="20" s:pid="Y"/>
  </g>
  <g s:type="mux" transform="translate(145.33333333333334,24.5)" s:width="20" s:height="40" id="cell_$procmux$6">
    <s:alias val="$pmux"/>
    <s:alias val="$mux"/>
    <s:alias val="$_MUX_"/>
    <path d="M0,0 L20,10 L20,30 L0,40 Z" class="cell_$procmux$6"/>
    <g s:x="0" s:y="10" s:pid="A"/>
    <g s:x="0" s:y="30" s:pid="B"/>
    <g s:x="10" s:y="35" s:pid="S"/>
    <g s:x="20" s:y="20" s:pid="Y"/>
  </g>
  <g s:type="inputExt" transform="translate(207,218)" s:width="30" s:height="20" id="cell_clk">
    <text x="15" y="-4" class="nodelabel cell_clk" s:attribute="ref">clk</text>
    <s:alias val="$_inputExt_"/>
    <path d="M0,0 L0,20 L15,20 L30,10 L15,0 Z" class="cell_clk"/>
    <g s:x="28" s:y="10" s:pid="Y"/>
  </g>
  <g s:type="inputExt" transform="translate(142,188)" s:width="30" s:height="20" id="cell_reset">
    <text x="15" y="-4" class="nodelabel cell_reset" s:attribute="ref">reset</text>
    <s:alias val="$_inputExt_"/>
    <path d="M0,0 L0,20 L15,20 L30,10 L15,0 Z" class="cell_reset"/>
    <g s:x="28" s:y="10" s:pid="Y"/>
  </g>
  <g s:type="outputExt" transform="translate(337,44.5)" s:width="30" s:height="20" id="cell_count">
    <text x="15" y="-4" class="nodelabel cell_count" s:attribute="ref">count</text>
    <s:alias val="$_outputExt_"/>
    <path d="M30,0 L30,20 L15,20 L0,10 L15,0 Z" class="cell_count"/>
    <g s:x="0" s:y="10" s:pid="A"/>
  </g>
  <g s:type="constant" transform="translate(12,32)" s:width="30" s:height="20" id="cell_1">
    <text x="15" y="-4" class="nodelabel cell_1" s:attribute="ref">1</text>
    <s:alias val="$_constant_"/>
    <rect width="30" height="20" class="cell_1"/>
    <g s:x="30" s:y="10" s:pid="Y"/>
  </g>
  <g s:type="constant" transform="translate(12,97)" s:width="30" s:height="20" id="cell_1001">
    <text x="15" y="-4" class="nodelabel cell_1001" s:attribute="ref">0x9</text>
    <s:alias val="$_constant_"/>
    <rect width="30" height="20" class="cell_1001"/>
    <g s:x="30" s:y="10" s:pid="Y"/>
  </g>
  <g s:type="constant" transform="translate(77,157)" s:width="30" s:height="20" id="cell_0000">
    <text x="15" y="-4" class="nodelabel cell_0000" s:attribute="ref">0x0</text>
    <s:alias val="$_constant_"/>
    <rect width="30" height="20" class="cell_0000"/>
    <g s:x="30" s:y="10" s:pid="Y"/>
  </g>
  <line x1="302" x2="312" y1="54.5" y2="54.5" class="net_4,5,6,7"/>
  <line x1="312" x2="312" y1="54.5" y2="12" class="net_4,5,6,7"/>
  <line x1="312" x2="52" y1="12" y2="12" class="net_4,5,6,7"/>
  <line x1="52" x2="52" y1="12" y2="27" class="net_4,5,6,7"/>
  <circle cx="52" cy="27" r="2" style="fill:#000" class="net_4,5,6,7"/>
  <line x1="52" x2="83.33333333333333" y1="27" y2="27" class="net_4,5,6,7"/>
  <line x1="302" x2="312" y1="54.5" y2="54.5" class="net_4,5,6,7"/>
  <line x1="312" x2="312" y1="54.5" y2="12" class="net_4,5,6,7"/>
  <line x1="312" x2="52" y1="12" y2="12" class="net_4,5,6,7"/>
  <line x1="52" x2="52" y1="12" y2="92" class="net_4,5,6,7"/>
  <circle cx="312" cy="54.5" r="2" style="fill:#000" class="net_4,5,6,7"/>
  <line x1="52" x2="83.33333333333333" y1="92" y2="92" class="net_4,5,6,7"/>
  <line x1="302" x2="337" y1="54.5" y2="54.5" class="net_4,5,6,7"/>
  <line x1="42" x2="83.33333333333333" y1="42" y2="42" class="net_21"/>
  <line x1="42" x2="83.33333333333333" y1="107" y2="107" class="net_22,23,24,25"/>
  <line x1="235" x2="247" y1="228" y2="228" class="net_2"/>
  <line x1="247" x2="247" y1="228" y2="74.5" class="net_2"/>
  <line x1="247" x2="272" y1="74.5" y2="74.5" class="net_2"/>
  <line x1="230.33333333333334" x2="272" y1="54.5" y2="54.5" class="net_13,14,15,16"/>
  <line x1="165.33333333333334" x2="210.33333333333334" y1="44.5" y2="44.5" class="net_17,18,19,20"/>
  <line x1="107" x2="182" y1="167" y2="167" class="net_26,27,28,29"/>
  <line x1="182" x2="182" y1="167" y2="64.5" class="net_26,27,28,29"/>
  <line x1="182" x2="210.33333333333334" y1="64.5" y2="64.5" class="net_26,27,28,29"/>
  <line x1="107" x2="117" y1="167" y2="167" class="net_26,27,28,29"/>
  <line x1="117" x2="117" y1="167" y2="54.5" class="net_26,27,28,29"/>
  <circle cx="117" cy="167" r="2" style="fill:#000" class="net_26,27,28,29"/>
  <line x1="117" x2="145.33333333333334" y1="54.5" y2="54.5" class="net_26,27,28,29"/>
  <line x1="170" x2="220.33333333333334" y1="198" y2="198" class="net_3"/>
  <line x1="220.33333333333334" x2="220.33333333333334" y1="198" y2="69.5" class="net_3"/>
  <line x1="105.33333333333333" x2="145.33333333333334" y1="34.5" y2="34.5" class="net_8,9,10,11"/>
  <line x1="105.33333333333333" x2="155.33333333333334" y1="99.5" y2="99.5" class="net_12"/>
  <line x1="155.33333333333334" x2="155.33333333333334" y1="99.5" y2="59.5" class="net_12"/>
</svg>
